<svg width="25" height="25" viewBox="0 0 25 25" fill="none" xmlns="http://www.w3.org/2000/svg">
<path d="M12.824 2.51331C7.30195 2.51331 2.82495 6.99031 2.82495 12.5123C2.82495 17.5023 6.48095 21.6383 11.262 22.3913V15.4033H8.72195V12.5123H11.262V10.3093C11.262 7.80131 12.755 6.41831 15.038 6.41831C16.132 6.41831 17.278 6.61331 17.278 6.61331V9.07231H16.014C14.774 9.07231 14.386 9.84431 14.386 10.6353V12.5103H17.157L16.714 15.4013H14.386V22.3893C19.167 21.6403 22.823 17.5033 22.823 12.5123C22.823 6.99031 18.346 2.51331 12.824 2.51331V2.51331Z" fill="black"/>
</svg>
