<svg width="24" height="24" viewBox="0 0 24 24" fill="none" xmlns="http://www.w3.org/2000/svg">
<path d="M15.332 8.66788C16.1983 8.64188 17.0203 8.27949 17.6239 7.65755C18.2274 7.03561 18.565 6.20304 18.565 5.33638C18.565 4.46973 18.2274 3.63715 17.6239 3.01521C17.0203 2.39327 16.1983 2.03088 15.332 2.00488H8.668C7.80174 2.03088 6.97966 2.39327 6.37611 3.01521C5.77255 3.63715 5.43498 4.46973 5.43498 5.33638C5.43498 6.20304 5.77255 7.03561 6.37611 7.65755C6.97966 8.27949 7.80174 8.64188 8.668 8.66788C7.79416 8.68302 6.96123 9.04078 6.34862 9.6641C5.73601 10.2874 5.39273 11.1264 5.39273 12.0004C5.39273 12.8744 5.73601 13.7134 6.34862 14.3367C6.96123 14.96 7.79416 15.3177 8.668 15.3329C7.79843 15.3542 6.97165 15.7146 6.36416 16.3371C5.75668 16.9597 5.41664 17.7951 5.41664 18.6649C5.41664 19.5347 5.75668 20.3701 6.36416 20.9926C6.97165 21.6152 7.79843 21.9756 8.668 21.9969C9.55171 21.9964 10.3991 21.645 11.0238 21.02C11.6486 20.3951 11.9997 19.5476 12 18.6639V8.66788H15.332Z" fill="#D90062"/>
<path d="M15.332 15.332C17.1722 15.332 18.664 13.8402 18.664 12C18.664 10.1598 17.1722 8.66797 15.332 8.66797C13.4918 8.66797 12 10.1598 12 12C12 13.8402 13.4918 15.332 15.332 15.332Z" fill="#D90062"/>
</svg>
